<svg width="112" height="33" viewBox="0 0 112 33" fill="none" xmlns="http://www.w3.org/2000/svg">
<path fill-rule="evenodd" clip-rule="evenodd" d="M10.3899 21.09C9.46327 21.8833 8.19327 22.28 6.57994 22.28C4.85994 22.28 3.49327 21.68 2.47994 20.48C1.45327 19.2533 0.939941 17.5867 0.939941 15.48C0.939941 13.3467 1.46661 11.68 2.51994 10.48C3.53327 9.33334 4.86661 8.76001 6.51994 8.76001C7.31994 8.76001 8.01327 8.85668 8.59994 9.05001C9.18661 9.24334 9.69328 9.51334 10.1199 9.86001C10.9599 10.54 11.5066 11.4933 11.7599 12.72L9.23994 13.18C9.02661 12.5 8.69661 11.95 8.24994 11.53C7.80327 11.11 7.24661 10.9 6.57994 10.9C5.67327 10.9 4.93994 11.28 4.37994 12.04C3.77994 12.8667 3.47994 14.01 3.47994 15.47C3.47994 16.93 3.74661 18.07 4.27994 18.89C4.81327 19.71 5.53994 20.12 6.45994 20.12C7.37994 20.12 8.07327 19.8967 8.53994 19.45C9.00661 19.0033 9.23994 18.4267 9.23994 17.72H11.7799C11.7799 19.1733 11.3166 20.2967 10.3899 21.09ZM16.5399 19.2L15.6199 22H13.1199L17.5399 9.02001H20.4999L24.7599 22H22.2599L21.3599 19.2H16.5399ZM20.7799 17.42H17.1399L18.9799 11.84L20.7799 17.42ZM35.3399 21.25C34.4599 21.9367 33.2066 22.28 31.5799 22.28C30.1399 22.28 28.9733 21.9267 28.0799 21.22C27.0799 20.4467 26.5533 19.3533 26.4999 17.94H28.8399C28.8399 19.0067 29.3933 19.68 30.4999 19.96C30.8333 20.0533 31.2733 20.1 31.8199 20.1C32.3666 20.1 32.8733 19.9633 33.3399 19.69C33.8066 19.4167 34.0399 19.05 34.0399 18.59C34.0399 18.13 33.9133 17.7767 33.6599 17.53C33.4066 17.2833 32.9933 17.0533 32.4199 16.84L29.8399 15.82C28.8399 15.4333 28.0733 14.98 27.5399 14.46C27.0066 13.94 26.7399 13.22 26.7399 12.3C26.7399 11.22 27.1599 10.3667 27.9999 9.74001C28.8533 9.08668 30.0099 8.76001 31.4699 8.76001C32.9299 8.76001 34.0566 9.09668 34.8499 9.77001C35.6433 10.4433 36.0999 11.3867 36.2199 12.6H33.8799C33.6666 11.4667 32.8666 10.9 31.4799 10.9C30.7999 10.9 30.2699 11.0367 29.8899 11.31C29.5099 11.5833 29.3199 11.9133 29.3199 12.3C29.3199 12.6867 29.4433 12.99 29.6899 13.21C29.9366 13.43 30.3199 13.6333 30.8399 13.82L33.6599 14.92C34.6199 15.2933 35.3599 15.7633 35.8799 16.33C36.3999 16.8967 36.6599 17.6067 36.6599 18.46C36.6599 19.6333 36.2199 20.5633 35.3399 21.25ZM44.3399 22.28C45.9666 22.28 47.2199 21.9367 48.0999 21.25C48.9799 20.5633 49.4199 19.6333 49.4199 18.46C49.4199 17.6067 49.1599 16.8967 48.6399 16.33C48.1199 15.7633 47.3799 15.2933 46.4199 14.92L43.5999 13.82C43.0799 13.6333 42.6966 13.43 42.4499 13.21C42.2033 12.99 42.0799 12.6867 42.0799 12.3C42.0799 11.9133 42.2699 11.5833 42.6499 11.31C43.0299 11.0367 43.5599 10.9 44.2399 10.9C45.6266 10.9 46.4266 11.4667 46.6399 12.6H48.9799C48.8599 11.3867 48.4033 10.4433 47.6099 9.77001C46.8166 9.09668 45.6899 8.76001 44.2299 8.76001C42.7699 8.76001 41.6133 9.08668 40.7599 9.74001C39.9199 10.3667 39.4999 11.22 39.4999 12.3C39.4999 13.22 39.7666 13.94 40.2999 14.46C40.8333 14.98 41.5999 15.4333 42.5999 15.82L45.1799 16.84C45.7533 17.0533 46.1666 17.2833 46.4199 17.53C46.6733 17.7767 46.7999 18.13 46.7999 18.59C46.7999 19.05 46.5666 19.4167 46.0999 19.69C45.6333 19.9633 45.1266 20.1 44.5799 20.1C44.0333 20.1 43.5933 20.0533 43.2599 19.96C42.1533 19.68 41.5999 19.0067 41.5999 17.94H39.2599C39.3133 19.3533 39.8399 20.4467 40.8399 21.22C41.7333 21.9267 42.8999 22.28 44.3399 22.28ZM54.9399 9.02001V22H52.5799V9.02001H54.9399ZM63.6199 22.28C65.4199 22.28 66.8399 21.72 67.8799 20.6C68.9733 19.4 69.5199 17.7 69.5199 15.5C69.5199 13.3133 68.9733 11.6333 67.8799 10.46C67.3599 9.90001 66.7399 9.47668 66.0199 9.19001C65.2999 8.90334 64.5066 8.76001 63.6399 8.76001C61.8266 8.76001 60.4066 9.31334 59.3799 10.42C58.2866 11.5933 57.7399 13.2867 57.7399 15.5C57.7399 17.6867 58.2866 19.3733 59.3799 20.56C60.4199 21.7067 61.8333 22.28 63.6199 22.28ZM61.1199 18.95C61.7466 19.7433 62.5866 20.14 63.6399 20.14C64.6933 20.14 65.5299 19.7433 66.1499 18.95C66.7699 18.1567 67.0799 17.02 67.0799 15.54C67.0799 14.0467 66.7699 12.8967 66.1499 12.09C65.5299 11.2833 64.6933 10.88 63.6399 10.88C62.5866 10.88 61.7466 11.2833 61.1199 12.09C60.4933 12.8967 60.1799 14.0433 60.1799 15.53C60.1799 17.0167 60.4933 18.1567 61.1199 18.95ZM74.6399 22V17.28H76.8399C78.3066 17.28 79.4499 16.9233 80.2699 16.21C81.0899 15.4967 81.4999 14.4767 81.4999 13.15C81.4999 11.8233 81.0899 10.8033 80.2699 10.09C79.4499 9.37668 78.3066 9.02001 76.8399 9.02001H72.2599V22H74.6399ZM74.6399 15.22H76.8399C77.5733 15.22 78.1266 15.0267 78.4999 14.64C78.8733 14.2533 79.0599 13.7567 79.0599 13.15C79.0599 12.5433 78.8733 12.0433 78.4999 11.65C78.1266 11.2567 77.5733 11.06 76.8399 11.06H74.6399V15.22ZM92.2799 22V19.94H86.2799V16.52H91.8999V14.48H86.2799V11.06H92.2799V9.02001H83.9199V22H92.2799ZM98.0199 9.02001V22H95.6599V9.02001H98.0199ZM103.74 19.2H108.56L109.46 22H111.96L107.7 9.02001H104.74L100.32 22H102.82L103.74 19.2ZM104.34 17.42H107.98L106.18 11.84L104.34 17.42Z" fill="black"/>
</svg>
